<?xml version="1.0" standalone="no"?>
<!DOCTYPE svg PUBLIC "-//W3C//DTD SVG 20010904//EN"
 "http://www.w3.org/TR/2001/REC-SVG-20010904/DTD/svg10.dtd">
<svg version="1.0" xmlns="http://www.w3.org/2000/svg"
 width="254.000000pt" height="294.000000pt" viewBox="0 0 254.000000 294.000000"
 preserveAspectRatio="xMidYMid meet">

<g transform="translate(0.000000,294.000000) scale(0.100000,-0.100000)"
fill="#000000" stroke="none">
<path d="M1145 2682 c3 -8 5 -45 5 -83 l0 -69 40 0 c46 0 53 19 18 45 -16 12
-19 19 -10 22 20 8 14 40 -10 48 l-23 8 23 4 c12 2 22 12 22 21 0 13 -9 17
-35 17 -25 0 -34 -4 -30 -13z"/>
<path d="M1314 2664 c-24 -30 -33 -94 -15 -94 5 0 13 -9 16 -20 9 -29 65 -28
65 1 0 11 -4 18 -9 15 -15 -10 -33 21 -29 51 2 17 11 32 26 38 34 15 30 38 -7
40 -15 0 -31 -10 -47 -31z"/>
<path d="M1010 2670 c-14 -4 -20 -8 -14 -9 7 -1 14 -31 18 -71 7 -66 9 -70 32
-70 76 0 98 84 38 144 -17 17 -35 19 -74 6z m56 -44 c3 -13 4 -37 1 -52 -3
-22 -4 -19 -6 14 0 23 -5 42 -11 42 -5 0 -10 5 -10 10 0 20 20 9 26 -14z"/>
<path d="M1429 2657 c-22 -30 -30 -82 -19 -112 8 -20 16 -25 46 -25 45 0 73
31 74 81 0 67 -67 104 -101 56z m56 -71 c-9 -43 -35 -50 -35 -8 0 15 3 37 7
50 5 20 8 22 20 9 10 -10 12 -25 8 -51z"/>
<path d="M1571 2607 c-6 -18 -20 -51 -31 -73 -18 -35 -19 -39 -5 -42 20 -4 44
25 45 53 0 13 3 16 10 9 7 -7 8 -25 1 -52 -7 -35 -6 -42 6 -42 8 0 22 18 30
40 9 22 20 40 25 40 11 0 0 -60 -14 -77 -8 -10 -4 -13 16 -13 21 0 26 5 26 24
0 14 4 27 9 30 5 3 7 15 4 25 -3 10 0 22 6 25 18 11 13 40 -9 54 -23 14 -40 8
-40 -14 0 -8 -4 -14 -10 -14 -5 0 -10 11 -10 25 0 14 -4 25 -9 25 -5 0 -16 3
-24 6 -10 4 -18 -5 -26 -29z"/>
<path d="M857 2610 c3 -11 9 -23 14 -26 11 -7 12 -34 1 -34 -5 0 -14 11 -20
25 -8 17 -20 25 -36 25 -24 0 -24 -2 -15 -32 6 -18 15 -41 20 -51 5 -10 7 -22
4 -27 -4 -6 -1 -10 4 -10 6 0 11 -9 11 -21 0 -12 5 -19 13 -16 7 2 11 19 10
41 -1 20 2 36 7 36 6 0 10 -6 10 -13 0 -8 8 -21 19 -31 15 -14 20 -14 30 -3
12 15 4 77 -9 77 -5 0 -11 18 -15 40 -6 33 -11 40 -30 40 -18 0 -22 -4 -18
-20z"/>
<path d="M680 2585 c0 -8 5 -15 10 -15 6 0 10 7 10 15 0 8 -4 15 -10 15 -5 0
-10 -7 -10 -15z"/>
<path d="M1741 2548 c-8 -18 -13 -37 -12 -42 1 -5 -2 -12 -8 -15 -5 -3 -12
-18 -16 -32 -5 -20 -1 -28 19 -39 29 -15 51 -4 23 11 -15 9 -15 12 -3 25 8 8
21 13 27 12 7 -2 15 5 17 15 2 10 -2 17 -12 17 -9 0 -16 5 -16 10 0 6 10 10
23 10 22 0 55 16 47 22 -3 2 -18 10 -35 18 -16 8 -32 16 -35 17 -3 2 -12 -11
-19 -29z"/>
<path d="M710 2558 c0 -4 -6 -8 -14 -8 -16 0 -27 -44 -19 -80 2 -14 20 -36 39
-49 32 -22 35 -23 59 -7 33 21 41 42 25 61 -7 9 -10 18 -7 22 10 10 -43 67
-64 68 -10 1 -19 -2 -19 -7z m45 -79 c8 -36 1 -46 -20 -29 -8 7 -15 28 -15 47
0 30 2 34 14 24 8 -7 18 -26 21 -42z"/>
<path d="M1841 2486 c-5 -13 -21 -36 -35 -51 -14 -15 -26 -34 -26 -41 0 -21
24 -22 42 -2 15 18 16 17 15 -14 -2 -23 3 -33 16 -36 13 -3 17 3 17 25 0 21 9
36 30 51 37 28 37 36 4 67 -34 31 -52 32 -63 1z m39 -33 c0 -20 -3 -24 -11
-16 -7 7 -9 19 -6 27 10 24 17 19 17 -11z"/>
<path d="M602 2477 c-11 -12 -11 -17 0 -24 7 -4 19 -19 26 -33 27 -52 50 -76
62 -64 16 16 6 42 -38 93 -33 37 -40 41 -50 28z"/>
<path d="M530 2431 c-14 -26 -13 -37 6 -76 19 -41 63 -62 93 -45 21 11 27 30
14 43 -3 4 -13 1 -21 -5 -12 -10 -19 -7 -38 15 -26 30 -30 52 -14 62 6 4 8 11
5 16 -10 15 -34 10 -45 -10z"/>
<path d="M1264 2442 c5 -9 -6 -12 -37 -12 -24 0 -46 -2 -49 -5 -3 -3 -49 -7
-103 -8 -66 -2 -100 -7 -103 -15 -2 -7 -9 -12 -15 -12 -26 0 -87 -22 -83 -29
3 -4 -1 -8 -8 -8 -24 0 -76 -25 -70 -34 3 -5 -2 -9 -10 -9 -22 0 -86 -32 -81
-41 3 -4 -6 -10 -20 -13 -14 -4 -25 -13 -25 -21 0 -8 -6 -15 -13 -15 -6 0 -25
-13 -40 -30 -16 -16 -35 -30 -44 -30 -8 0 -13 -5 -11 -11 2 -6 -10 -26 -27
-44 -58 -62 -72 -80 -79 -102 -4 -13 -12 -23 -18 -23 -5 0 -7 -7 -4 -16 3 -8
2 -12 -4 -9 -5 3 -12 -6 -16 -20 -3 -14 -10 -25 -16 -25 -5 0 -6 -4 -3 -10 3
-5 2 -10 -3 -10 -10 0 -39 -88 -34 -103 1 -5 -2 -6 -7 -3 -13 8 -21 -19 -28
-90 l-6 -61 38 -6 c21 -4 54 -19 74 -35 49 -38 62 -42 111 -31 53 12 94 0 122
-36 18 -23 25 -26 60 -20 31 6 51 1 104 -25 56 -27 64 -34 53 -46 -10 -12 -26
-14 -74 -9 -51 6 -70 3 -108 -14 -58 -27 -102 -27 -152 0 -34 19 -50 21 -115
15 -41 -3 -85 -9 -97 -12 -17 -5 -23 -2 -23 9 0 10 15 17 48 21 123 18 148 18
186 2 41 -17 132 -21 155 -7 10 7 8 10 -10 16 -13 4 -44 16 -68 27 -24 11 -65
23 -91 27 -26 4 -61 17 -78 29 -39 28 -44 28 -36 -3 7 -30 -1 -31 -44 -5 l-33
20 11 -21 c14 -26 11 -30 -19 -22 -22 6 -23 10 -18 63 3 32 1 64 -4 71 -5 8
-9 -67 -9 -186 0 -115 4 -194 9 -186 5 8 11 -10 15 -52 4 -36 16 -81 27 -101
10 -20 19 -42 19 -50 0 -8 7 -19 16 -24 9 -5 15 -15 12 -23 -4 -13 1 -22 33
-58 9 -10 19 -30 23 -44 3 -15 15 -31 26 -37 11 -6 20 -16 20 -24 0 -7 17 -27
38 -46 20 -18 37 -35 37 -39 0 -3 3 -5 7 -3 5 1 8 -5 8 -13 0 -8 4 -15 9 -15
5 0 26 -17 48 -37 42 -40 123 -93 142 -93 6 0 11 -4 11 -10 0 -5 7 -6 17 -3
10 4 14 2 9 -5 -4 -7 6 -13 29 -18 19 -3 39 -12 43 -18 9 -15 98 -36 155 -37
36 -1 38 -2 17 -9 -27 -8 279 -18 340 -11 l35 4 -30 7 c-28 7 -27 8 12 9 49 1
143 22 143 31 0 4 19 13 43 20 23 8 49 20 58 27 8 7 22 13 30 13 20 1 50 26
41 34 -4 4 -2 6 3 5 13 -4 56 20 76 43 9 10 20 18 24 18 10 0 95 82 95 92 0 5
17 26 38 46 30 30 36 41 29 54 -15 23 4 82 27 86 15 3 17 0 11 -20 -4 -12 -11
-25 -15 -28 -3 -3 -10 -14 -13 -25 -6 -16 -3 -15 13 5 11 14 20 30 20 36 0 7
7 14 14 17 8 3 18 22 22 41 3 20 11 36 16 36 6 0 8 9 5 20 -3 11 -1 17 4 14 5
-3 12 8 15 25 4 17 10 31 15 31 5 0 6 7 2 16 -3 9 -1 19 6 23 7 5 15 52 21
116 4 59 12 110 17 114 12 8 13 91 2 91 -5 0 -9 -21 -9 -46 0 -32 -4 -44 -12
-41 -8 2 -12 17 -11 35 2 17 -6 46 -16 64 -10 18 -21 51 -25 73 -4 33 -2 44
14 58 18 15 20 15 30 -3 5 -10 10 -33 10 -51 0 -18 3 -29 7 -26 8 9 -18 176
-29 183 -5 3 -6 10 -3 15 4 5 1 9 -5 9 -6 0 -8 -11 -4 -27 6 -25 1 -23 -39 22
-31 34 -46 59 -47 78 0 33 -49 87 -77 87 -10 -1 -42 -23 -70 -50 -47 -44 -53
-53 -53 -90 0 -27 -9 -57 -26 -86 -20 -35 -26 -59 -28 -114 -2 -65 -13 -94
-48 -120 -21 -16 -51 -110 -52 -161 -1 -46 4 -62 26 -91 l27 -36 -36 -7 c-30
-5 -40 -2 -60 17 -21 22 -23 28 -12 54 25 66 109 313 109 323 0 20 -20 12 -29
-11 -5 -13 -31 -57 -58 -98 -28 -41 -58 -91 -68 -110 -26 -50 -29 -24 -12 93
13 81 35 241 41 291 1 5 -3 10 -9 12 -5 2 -23 -31 -39 -74 -15 -42 -34 -90
-41 -107 -7 -16 -22 -51 -34 -77 -11 -27 -24 -48 -30 -48 -5 0 -12 35 -15 78
-26 322 -41 421 -61 400 -6 -5 -14 -59 -40 -263 -22 -172 -24 -183 -36 -164
-5 7 -16 37 -25 64 -15 46 -86 244 -104 290 -32 79 -71 156 -78 151 -5 -3 -5
-33 0 -68 4 -35 15 -117 23 -183 8 -66 19 -147 25 -180 12 -75 13 -108 1 -101
-20 13 -241 317 -241 332 0 2 -8 14 -18 25 -11 10 -25 32 -32 47 -19 36 -51
72 -60 67 -4 -3 2 -40 15 -82 22 -77 33 -106 73 -193 11 -25 39 -88 62 -140
24 -52 46 -99 51 -105 11 -15 49 -128 45 -133 -6 -5 -108 61 -124 80 -10 12
-10 22 -1 41 15 32 -1 61 -44 83 -18 10 -45 27 -62 40 -16 12 -51 25 -76 29
-34 5 -57 17 -89 46 -45 41 -82 49 -134 29 -30 -11 -73 2 -92 28 -10 14 -9 20
5 37 10 11 44 58 76 105 56 81 112 142 276 295 93 87 209 210 209 221 1 13 75
62 105 70 14 3 28 10 31 15 3 5 12 9 21 9 26 0 -14 -38 -67 -65 -51 -26 -119
-95 -145 -146 -9 -19 -33 -48 -54 -66 -20 -17 -33 -34 -29 -38 3 -4 38 10 76
30 53 27 81 51 116 96 25 32 51 59 57 59 39 0 191 151 168 166 -8 4 -9 3 -5
-4z m639 -789 c-17 -32 -17 -35 -1 -64 16 -28 16 -32 2 -55 -10 -14 -14 -36
-12 -54 4 -26 1 -30 -19 -30 -33 0 -30 -38 7 -85 17 -21 30 -45 30 -53 0 -9 7
-23 16 -33 14 -16 13 -17 -18 -16 -43 2 -48 -25 -13 -76 14 -21 25 -40 25 -43
0 -2 -18 6 -41 18 -53 30 -73 69 -64 122 4 23 7 55 6 71 -1 17 -2 46 -3 65 -1
22 9 57 28 95 21 42 29 68 24 85 -8 32 3 83 26 118 l19 27 3 -29 c2 -16 -5
-44 -15 -63z m234 35 c-3 -8 -6 -5 -6 6 -1 11 2 17 5 13 3 -3 4 -12 1 -19z
m-201 -65 c-10 -10 -19 5 -10 18 6 11 8 11 12 0 2 -7 1 -15 -2 -18z m-665
-238 c24 -62 24 -65 0 -65 -21 0 -26 13 -40 111 -5 35 -12 80 -15 99 -4 19 3
6 15 -30 11 -36 29 -88 40 -115z m-195 38 c15 -29 43 -72 62 -94 33 -38 37
-69 10 -69 -9 1 -133 236 -133 253 0 10 38 -47 61 -90z m323 -30 c1 -73 -2
-80 -28 -64 -11 7 -12 23 -7 72 4 35 10 75 13 89 l7 25 7 -25 c4 -14 7 -58 8
-97z m709 -45 c29 -47 28 -79 -4 -109 l-27 -24 7 30 c18 81 18 101 2 114 -10
9 -16 28 -15 55 l1 41 7 -36 c4 -20 17 -52 29 -71z m-1556 2 c42 -26 93 -25
164 1 l58 22 25 -31 c88 -104 101 -122 93 -122 -5 0 -47 13 -93 29 -105 36
-142 45 -137 32 4 -12 199 -161 211 -161 12 0 40 -30 34 -36 -3 -3 -23 -8 -44
-11 -35 -5 -42 -2 -68 28 -51 61 -79 72 -191 73 l-101 1 -56 47 c-33 29 -70
51 -93 56 -55 11 -60 42 -7 42 21 0 65 11 98 25 73 30 67 29 107 5z m942 -34
c-3 -14 -10 -26 -15 -26 -12 0 -11 4 3 35 14 31 21 26 12 -9z m-508 -73 c-7
-7 -26 7 -26 19 0 6 6 6 15 -2 9 -7 13 -15 11 -17z m489 -30 c60 -20 125 -61
125 -79 0 -8 -19 -23 -42 -35 -23 -12 -64 -36 -90 -54 -55 -38 -155 -74 -224
-81 -38 -4 -51 -1 -66 16 -10 11 -32 20 -48 20 -22 0 -33 8 -50 34 -11 19 -26
36 -33 39 -18 6 38 81 83 111 38 25 120 53 175 58 38 4 106 -7 170 -29z m-425
-24 c0 -5 -7 -9 -15 -9 -8 0 -15 7 -15 15 0 8 -4 15 -10 15 -5 0 -10 5 -10 10
0 6 11 3 25 -6 14 -9 25 -20 25 -25z m-672 5 c43 -21 48 -32 17 -44 -37 -14
-44 -13 -38 9 3 10 0 22 -6 25 -10 7 -16 26 -8 26 2 0 18 -7 35 -16z m567 -44
c3 -5 2 -10 -4 -10 -5 0 -13 5 -16 10 -3 6 -2 10 4 10 5 0 13 -4 16 -10z
m-257 -47 c13 -8 42 -31 64 -51 36 -32 47 -37 92 -37 28 0 74 3 101 8 l50 7
-40 -16 c-22 -9 -62 -21 -88 -27 -43 -10 -52 -9 -91 13 -28 15 -50 21 -62 16
-15 -6 -17 -5 -6 5 21 22 14 26 -40 28 -61 1 -73 8 -30 17 37 8 42 22 10 28
-57 9 -93 5 -114 -15 -12 -11 -31 -19 -43 -17 -18 3 -17 6 15 27 59 41 131 46
182 14z m1091 -28 c18 -25 45 -52 60 -60 37 -19 43 -35 35 -110 -6 -56 -4 -65
14 -81 31 -26 12 -46 -29 -32 -40 14 -50 1 -20 -24 33 -26 15 -37 -59 -39
l-55 -1 38 -10 c20 -6 37 -14 37 -19 0 -5 -1 -9 -2 -9 -39 2 -224 42 -234 51
-19 16 -18 59 1 59 32 0 28 31 -6 60 -32 26 -33 29 -14 36 18 6 175 158 175
169 0 8 -34 -7 -65 -29 -16 -12 -47 -30 -68 -41 -21 -11 -45 -28 -54 -37 -9
-10 -22 -18 -30 -18 -29 0 -10 27 49 70 34 24 67 51 75 58 18 19 84 51 104 52
8 0 30 -20 48 -45z m-1209 -55 c0 -5 -9 -10 -21 -10 -11 0 -17 5 -14 10 3 6
13 10 21 10 8 0 14 -4 14 -10z m290 -151 c0 -13 -41 -48 -64 -55 -12 -4 -34
-17 -51 -29 -51 -38 -96 -58 -107 -47 -10 10 -1 20 62 70 37 30 18 37 -67 24
-82 -13 -96 -9 -87 24 5 20 12 21 160 21 85 -1 154 -4 154 -8z m176 -82 c8 -7
13 -86 6 -104 -3 -9 -27 -13 -73 -13 -68 0 -69 0 -70 28 -2 37 2 86 7 94 5 8
121 4 130 -5z m244 -52 c0 -63 -1 -65 -25 -65 -24 0 -25 2 -25 65 0 63 1 65
25 65 24 0 25 -2 25 -65z m115 46 c3 -11 3 -31 -1 -45 -5 -22 -12 -26 -40 -26
-34 0 -34 1 -34 45 0 45 0 45 34 45 25 0 36 -5 41 -19z m115 -11 c0 -34 -17
-45 -55 -36 -18 5 -25 13 -25 30 0 30 7 36 47 36 30 0 33 -3 33 -30z m-666
-24 c-7 -17 -84 -80 -90 -73 -8 7 78 97 87 91 4 -2 6 -11 3 -18z m812 -110
c10 -8 16 -17 12 -21 -8 -8 -48 13 -48 25 0 14 13 12 36 -4z"/>
<path d="M1783 971 c29 -28 57 -51 61 -51 11 0 -6 54 -23 73 -10 10 -34 20
-55 24 l-38 6 55 -52z"/>
<path d="M1681 896 c-26 -28 -27 -46 -2 -46 18 0 51 34 51 51 0 18 -30 15 -49
-5z"/>
<path d="M1376 2419 c3 -5 12 -9 20 -9 8 0 14 -3 14 -7 -1 -9 -111 -84 -158
-108 -45 -22 -31 -39 26 -31 39 5 43 4 32 -9 -7 -8 -23 -15 -37 -15 -64 0
-132 -57 -118 -100 8 -24 18 -30 120 -65 76 -26 82 -27 155 -14 119 20 211 14
273 -17 60 -31 138 -54 184 -54 17 0 53 9 78 20 l48 20 -32 30 c-17 17 -31 33
-31 36 0 13 -74 83 -83 77 -6 -3 -7 -1 -4 4 4 6 0 16 -8 23 -11 10 -18 9 -30
-4 -23 -22 -28 -20 -14 6 12 23 8 29 -51 68 -12 8 -34 24 -48 35 -14 11 -23
14 -19 7 6 -8 3 -10 -7 -6 -9 3 -16 10 -16 14 0 4 -15 13 -32 21 -18 7 -35 16
-38 19 -3 3 -24 12 -48 20 -45 14 -71 7 -31 -9 21 -9 20 -10 -16 -10 -22 -1
-55 -10 -72 -21 -52 -31 -38 -6 14 28 51 34 50 36 -29 51 -27 5 -45 5 -42 0z
m267 -134 c34 -14 71 -23 83 -21 13 4 28 -2 39 -14 10 -11 25 -20 32 -20 27 0
7 -25 -27 -34 -25 -7 -35 -7 -38 2 -2 7 -22 12 -47 12 -24 0 -45 5 -47 11 -3
8 -16 7 -47 -2 -35 -10 -44 -10 -51 0 -9 16 -46 5 -130 -39 -46 -24 -52 -30
-36 -36 11 -4 55 -2 97 4 64 9 91 8 150 -4 39 -8 86 -22 103 -31 36 -19 117
-22 164 -6 50 18 41 -8 -11 -29 -59 -25 -100 -22 -187 13 -91 37 -148 43 -265
31 -86 -8 -193 2 -212 22 -15 14 35 47 84 55 35 5 64 18 94 43 94 76 148 85
252 43z"/>
<path d="M1929 2389 c-46 -49 -33 -134 17 -115 13 5 14 9 4 21 -28 34 22 102
56 75 19 -16 31 14 14 35 -20 25 -59 18 -91 -16z"/>
<path d="M2008 2314 c-48 -55 -57 -77 -38 -89 10 -6 67 48 97 93 14 20 14 25
2 37 -12 12 -21 6 -61 -41z"/>
<path d="M435 2340 c-16 -17 -14 -23 25 -90 42 -71 55 -78 62 -30 2 16 9 25
20 25 17 0 46 22 37 28 -115 80 -127 86 -144 67z m70 -61 c12 -19 -5 -23 -22
-6 -16 16 -16 17 -1 17 9 0 20 -5 23 -11z"/>
<path d="M2060 2246 c-58 -34 -70 -59 -32 -64 18 -3 23 -9 19 -22 -7 -29 17
-44 35 -22 47 54 76 109 67 125 -14 23 -26 21 -89 -17z m27 -43 c-15 -16 -17
-16 -17 -1 0 9 6 18 13 21 20 7 22 -2 4 -20z"/>
<path d="M363 2254 c-4 -11 10 -31 48 -64 48 -43 56 -47 69 -33 13 13 9 20
-39 64 -60 53 -69 57 -78 33z"/>
<path d="M308 2184 c-15 -32 5 -70 52 -98 25 -15 36 -17 56 -7 30 13 41 38 24
54 -10 9 -14 9 -17 0 -15 -40 -88 10 -77 52 9 35 -22 34 -38 -1z"/>
<path d="M2197 2173 c-4 -4 -14 -8 -21 -9 -22 -3 -96 -56 -96 -69 0 -22 13
-25 38 -9 32 21 37 13 11 -20 -20 -25 -20 -29 -6 -43 13 -14 19 -14 32 -3 8 7
18 10 22 7 9 -9 83 52 83 69 0 19 -30 18 -58 -2 -30 -21 -28 -6 5 28 24 25 25
30 12 43 -8 9 -18 12 -22 8z"/>
<path d="M242 2068 c-20 -20 -15 -83 9 -104 41 -37 129 -9 129 42 0 50 -103
97 -138 62z m81 -46 c25 -22 21 -34 -10 -31 -36 4 -53 17 -53 41 0 15 5 18 23
12 12 -3 30 -13 40 -22z"/>
<path d="M2254 2032 c4 -12 -3 -23 -23 -35 -16 -9 -35 -17 -43 -17 -7 0 -20
-4 -28 -10 -12 -7 -12 -12 4 -29 19 -21 43 -18 64 8 8 10 26 15 52 14 22 -1
40 1 40 4 0 3 -9 20 -20 38 -23 38 -55 56 -46 27z"/>
<path d="M1982 1996 c-19 -19 -21 -24 -9 -29 8 -3 23 -4 34 -1 22 6 47 -33 78
-118 23 -63 35 -81 35 -54 0 21 -61 156 -70 156 -3 0 -12 16 -20 35 -8 19 -16
35 -19 34 -3 0 -16 -11 -29 -23z"/>
<path d="M174 1936 c-3 -8 -4 -25 -2 -38 3 -21 7 -23 56 -21 55 2 66 -9 35
-33 -17 -12 -16 -13 5 -14 12 0 22 -4 22 -10 0 -6 -30 -10 -69 -10 -61 0 -72
-3 -85 -22 -15 -21 -14 -23 22 -37 20 -8 39 -17 42 -21 5 -6 58 -30 66 -30 3
0 2 15 -1 34 -6 28 -3 36 14 45 12 7 21 20 21 30 0 10 7 32 15 49 13 26 14 34
3 51 -13 22 -68 30 -68 11 0 -5 -9 -10 -20 -10 -22 0 -28 25 -7 33 6 3 -1 6
-16 6 -15 1 -30 -5 -33 -13z m66 -161 c0 -16 -12 -18 -47 -9 -35 10 -27 24 12
24 24 0 35 -5 35 -15z"/>
<path d="M2310 1921 c0 -5 -29 -17 -64 -27 -49 -14 -62 -22 -58 -34 3 -8 9
-17 14 -21 4 -3 12 -27 17 -53 11 -62 29 -80 70 -71 21 4 31 13 31 25 0 9 7
23 15 30 13 10 15 9 15 -9 0 -14 6 -21 20 -21 14 0 20 7 20 23 0 50 -72 79
-86 35 -6 -22 -21 -38 -35 -38 -7 0 -22 40 -20 54 1 4 -4 15 -11 23 -11 14 -7
15 30 8 42 -7 52 1 30 23 -9 9 -8 12 4 12 9 0 18 -7 22 -15 3 -8 13 -15 22
-15 13 0 15 6 10 31 -3 17 -6 35 -6 40 0 5 -9 9 -20 9 -11 0 -20 -4 -20 -9z"/>
<path d="M136 1321 c-38 -6 -40 -8 -40 -41 0 -25 5 -36 17 -38 12 -2 17 3 17
17 0 19 6 21 60 21 57 0 60 1 60 25 0 22 -4 25 -37 24 -21 -1 -56 -5 -77 -8z"/>
<path d="M2386 1304 c-10 -25 -7 -34 9 -34 9 0 15 9 15 25 0 28 -15 34 -24 9z"/>
<path d="M2264 1256 c-17 -68 25 -99 72 -55 l24 22 0 -25 c0 -13 -3 -28 -7
-31 -13 -14 -13 -67 1 -67 21 0 40 26 25 35 -8 6 -7 10 5 17 10 6 16 22 16 49
0 32 -4 41 -25 51 -19 9 -29 7 -50 -6 -31 -21 -44 -13 -27 14 11 17 10 20 -8
20 -12 0 -22 -9 -26 -24z"/>
<path d="M116 1206 c4 -12 13 -25 20 -29 18 -10 18 -27 0 -27 -9 0 -12 -8 -8
-25 2 -14 8 -25 13 -25 5 0 9 -13 9 -29 0 -46 10 -61 40 -61 32 0 60 27 60 59
0 13 4 19 10 16 6 -4 10 -14 9 -23 -3 -30 1 -35 16 -22 23 19 18 56 -9 74 -23
14 -26 14 -40 0 -9 -9 -21 -24 -26 -35 -15 -26 -27 -24 -32 6 -5 22 1 28 43
48 40 18 49 27 49 47 0 45 -12 51 -89 49 -67 -2 -71 -3 -65 -23z m100 -31
c-25 -19 -46 -19 -46 0 0 10 10 15 33 15 30 -1 31 -1 13 -15z"/>
<path d="M2215 1073 c-8 -20 -14 -37 -13 -38 2 -1 27 -10 56 -20 47 -17 69
-35 42 -35 -5 0 -10 -11 -10 -25 0 -16 6 -25 15 -25 9 0 15 9 15 25 0 14 6 25
13 25 12 0 37 52 37 78 0 17 -21 15 -35 -5 -8 -11 -19 -14 -31 -9 -15 6 -16 9
-5 16 9 5 11 14 6 26 -8 18 -8 18 -12 2 -3 -11 -14 -18 -30 -18 -20 0 -23 3
-14 13 11 14 6 27 -11 27 -4 0 -15 -16 -23 -37z"/>
<path d="M313 977 c-13 -5 -23 -13 -23 -18 0 -4 -20 -17 -45 -29 l-46 -22 19
-30 c20 -31 39 -35 35 -7 -2 13 22 32 86 69 11 6 12 14 5 28 -7 16 -13 18 -31
9z"/>
<path d="M2182 983 c-10 -4 -4 -15 19 -39 40 -41 31 -55 -17 -29 -30 16 -37
17 -45 4 -5 -7 -9 -16 -9 -19 0 -8 62 -30 83 -30 9 0 17 -5 17 -11 0 -6 12 -9
28 -7 44 5 40 38 -12 92 -25 25 -47 46 -48 45 -2 0 -9 -3 -16 -6z"/>
<path d="M294 854 c-40 -41 -43 -67 -12 -88 34 -24 78 -20 110 11 32 30 35 58
12 91 -24 35 -70 29 -110 -14z m86 -18 c0 -16 -37 -46 -57 -46 -21 0 -15 28 9
44 28 20 48 20 48 2z"/>
<path d="M393 748 c-57 -44 -60 -50 -40 -67 11 -8 19 -5 37 14 35 37 46 30 16
-10 -40 -53 -19 -73 35 -34 36 26 37 14 2 -23 l-27 -28 31 -31 c18 -16 40 -29
50 -27 14 2 18 -3 16 -24 -1 -19 3 -28 13 -28 8 0 14 -5 14 -11 0 -5 5 -7 10
-4 6 3 10 0 10 -8 0 -31 79 -38 97 -8 7 10 9 22 5 25 -3 4 -8 18 -9 31 -4 26
21 36 30 13 4 -10 8 -9 16 2 22 32 -47 68 -77 38 -7 -7 -9 -27 -5 -55 4 -30 2
-43 -7 -43 -6 0 -14 9 -17 19 -3 12 -11 17 -19 14 -19 -7 -18 0 12 58 43 86
12 111 -66 54 -28 -21 -53 -35 -56 -32 -3 3 13 26 36 50 37 41 40 48 28 66
-16 25 -26 26 -50 4 -24 -21 -36 -9 -15 15 20 22 22 43 5 60 -17 17 -17 17
-75 -30z m161 -173 c-6 -16 -24 -21 -24 -7 0 11 11 22 21 22 5 0 6 -7 3 -15z"/>
<path d="M2145 770 c-11 -12 -15 -26 -10 -37 6 -17 7 -17 21 1 8 11 19 23 24
26 7 5 6 11 -3 18 -11 9 -18 8 -32 -8z"/>
<path d="M1990 711 c-16 -31 -12 -57 16 -90 31 -37 72 -41 99 -11 23 26 6 52
-20 30 -12 -10 -19 -9 -40 4 -25 17 -33 50 -15 61 6 4 8 11 5 16 -10 15 -34
10 -45 -10z"/>
<path d="M1908 624 c-16 -16 -15 -21 12 -74 16 -32 26 -60 23 -64 -4 -3 -24
19 -46 49 -38 54 -40 55 -59 38 -18 -17 -19 -28 -2 -80 4 -12 -3 -9 -21 11
-23 25 -29 27 -51 17 -28 -13 -27 -31 8 -89 29 -48 17 -49 -21 -2 -23 29 -39
40 -59 40 -26 0 -27 -2 -24 -40 2 -22 8 -43 13 -46 5 -3 9 -16 9 -28 0 -19 -5
-24 -27 -24 -54 0 -89 68 -43 83 27 9 26 32 -1 30 -36 -3 -62 -43 -54 -85 4
-19 14 -43 22 -52 17 -19 83 -25 83 -9 0 5 10 11 23 13 14 2 23 11 25 26 4 23
30 30 48 12 8 -8 15 -6 24 5 7 8 21 15 31 15 23 0 23 -3 -1 45 -24 48 -17 58
16 22 45 -49 71 -25 40 36 -20 36 -5 35 22 -3 27 -36 36 -37 67 -6 16 16 22
31 18 45 -5 20 3 26 33 22 6 -1 16 5 22 12 9 10 0 22 -39 51 -64 47 -71 50
-91 30z m66 -59 c3 -8 2 -15 -3 -15 -5 0 -14 7 -21 15 -10 12 -10 15 3 15 8 0
17 -7 21 -15z m-249 -164 c3 -5 1 -12 -5 -16 -5 -3 -10 1 -10 9 0 18 6 21 15
7z"/>
<path d="M760 496 c0 -7 -13 -40 -30 -72 -16 -32 -27 -60 -25 -63 3 -2 25 -7
50 -11 32 -5 48 -3 56 7 28 32 38 6 15 -38 -13 -26 -13 -27 23 -33 55 -9 61
-8 61 15 0 11 -4 17 -10 14 -5 -3 -15 -3 -20 0 -13 8 14 36 31 33 7 -2 15 5
17 15 2 10 -2 17 -12 17 -9 0 -16 5 -16 10 0 6 9 10 20 10 11 0 20 7 20 15 0
8 -8 15 -18 15 -10 0 -24 6 -31 13 -10 10 -15 8 -27 -7 -8 -11 -14 -15 -14 -9
0 12 -70 83 -82 83 -4 0 -8 -6 -8 -14z m36 -78 c-3 -17 -8 -34 -11 -36 -11
-11 -16 9 -10 37 9 42 29 41 21 -1z m54 -23 c0 -8 -4 -15 -10 -15 -5 0 -10 7
-10 15 0 8 5 15 10 15 6 0 10 -7 10 -15z"/>
<path d="M1010 386 c0 -14 -5 -28 -10 -31 -6 -4 -10 -14 -9 -23 1 -10 0 -24
-4 -32 -18 -49 -16 -60 14 -60 24 0 29 4 29 25 0 20 5 25 24 25 33 0 62 45 45
68 -41 54 -89 69 -89 28z m50 -36 c0 -11 -4 -20 -10 -20 -5 0 -10 9 -10 20 0
11 5 20 10 20 6 0 10 -9 10 -20z"/>
<path d="M1467 404 c-4 -4 -7 -43 -7 -86 0 -71 2 -78 20 -78 13 0 20 7 20 20
0 18 4 20 40 14 25 -4 40 -3 40 4 0 6 -4 12 -8 14 -5 2 -17 28 -28 58 -16 45
-24 56 -44 58 -14 2 -29 0 -33 -4z m53 -74 c0 -10 -4 -22 -10 -25 -6 -4 -10 7
-10 25 0 18 4 29 10 25 6 -3 10 -15 10 -25z"/>
<path d="M1390 361 c0 -36 -17 -42 -22 -8 -2 13 -11 23 -23 25 -19 3 -20 -2
-17 -73 3 -73 4 -75 29 -75 22 0 25 3 21 30 -3 20 0 30 9 30 7 0 13 -11 13
-25 0 -20 5 -25 25 -25 21 0 25 5 25 28 0 15 -4 32 -9 38 -5 5 -11 25 -13 44
-2 24 -9 36 -20 38 -14 3 -18 -3 -18 -27z"/>
<path d="M1134 353 c-4 -15 -10 -32 -14 -38 -5 -5 -13 -27 -18 -47 -9 -34 -9
-38 9 -38 10 0 19 5 19 10 0 6 7 10 15 10 8 0 15 -4 15 -10 0 -14 47 -13 52 1
4 11 40 -3 58 -21 11 -11 29 -9 41 6 14 17 4 30 -26 36 -28 5 -30 84 -2 82 10
-1 17 5 17 17 0 20 -10 23 -48 13 -16 -5 -24 -16 -28 -45 -9 -52 -22 -50 -26
4 -3 37 -6 42 -30 45 -23 3 -28 -1 -34 -25z m31 -52 c3 -5 1 -12 -5 -16 -5 -3
-10 1 -10 9 0 18 6 21 15 7z"/>
</g>
</svg>
